<svg id="Capa_1" enable-background="new 0 0 512.015 512.015" height="512" viewBox="0 0 512.015 512.015" width="512" xmlns="http://www.w3.org/2000/svg"><g id="XMLID_1072_"><g id="XMLID_1176_"><path id="XMLID_1187_" d="m485.307 95.44-293.5-93.965c-9.335-2.989-19.23-1.389-27.148 4.39-3.825 2.792-6.853 6.325-8.971 10.333l-97.476 97.476c-5.794-8.251-15.374-13.659-26.199-13.659-17.645 0-32 14.355-32 32v370c0 5.523 4.477 10 10 10h44c5.523 0 10-4.477 10-10v-345.858l91.674 91.674c2.118 4.008 5.146 7.542 8.971 10.334 5.301 3.869 11.487 5.865 17.799 5.864 3.116 0 6.264-.486 9.349-1.474l293.5-93.966c16.217-5.192 26.694-19.548 26.694-36.574s-10.477-31.383-26.693-36.575zm-78.256-4.054v81.257l-64.95 20.794v-122.845zm-254.85 30.629h-74.045l74.045-74.045zm0 20v74.045l-74.045-74.045zm-120.187-22c6.617 0 12 5.383 12 12v39h-24v-39c0-6.617 5.383-12 12-12zm-12 372v-301h24v301zm165.695-248.508c-3.183 1.02-6.558.474-9.259-1.497-2.7-1.971-4.249-5.019-4.249-8.361v-203.268c0-3.343 1.549-6.391 4.249-8.361 1.808-1.319 3.918-2 6.07-2 1.063 0 2.136.166 3.188.503l51.442 16.47v50.023c0 5.523 4.477 10 10 10s10-4.477 10-10v-43.62l64.95 20.794v135.65l-64.95 20.794v-43.619c0-5.523-4.477-10-10-10s-10 4.477-10 10v50.023zm293.499-93.966-52.158 16.699v-68.451l52.158 16.699c9.432 3.02 12.792 11.034 12.792 17.527s-3.36 14.507-12.792 17.526z"/><path id="XMLID_1197_" d="m247.147 142.015c2.63 0 5.21-1.07 7.08-2.93 1.86-1.86 2.92-4.44 2.92-7.07s-1.06-5.21-2.92-7.07c-1.87-1.86-4.44-2.93-7.08-2.93-2.63 0-5.2 1.07-7.07 2.93-1.86 1.86-2.93 4.44-2.93 7.07s1.07 5.21 2.93 7.07c1.87 1.859 4.44 2.93 7.07 2.93z"/><path id="XMLID_1198_" d="m432.48 244.015c-27.57 0-50 22.43-50 50 0 5.523 4.477 10 10 10s10-4.477 10-10c0-16.542 13.458-30 30-30s30 13.458 30 30-13.458 30-30 30h-146c-5.523 0-10 4.477-10 10s4.477 10 10 10h146c27.57 0 50-22.43 50-50s-22.429-50-50-50z"/><path id="XMLID_1200_" d="m338.014 374.015h-90.863c-5.523 0-10 4.477-10 10s4.477 10 10 10h90.863c5.523 0 10-4.477 10-10s-4.477-10-10-10z"/><path id="XMLID_1201_" d="m188.014 374.015h-72.722c-5.523 0-10 4.477-10 10s4.477 10 10 10h72.722c5.523 0 10-4.477 10-10s-4.477-10-10-10z"/></g></g></svg>